<?xml version="1.0" encoding="UTF-8"?>
<svg width="1000px" height="230px" viewBox="0 0 1000 230" version="1.1" xmlns="http://www.w3.org/2000/svg" xmlns:xlink="http://www.w3.org/1999/xlink">
    <title>1000_full_logo</title>
    <g id="Page-1" stroke="none" stroke-width="1" fill="none" fill-rule="evenodd">
        <path d="M123.372756,-1.13686838e-13 C162.915649,-1.13686838e-13 195.046367,31.7352896 195.685027,71.1259845 L195.694716,72.3219604 L195.694,174.63 L374.372501,174.62963 C390.654868,174.62963 403.885164,187.697102 404.148142,203.9168 L404.152131,204.40926 L404.152131,230 L400.241207,230 C390.887657,230 383.236475,222.596774 382.890078,213.288437 L382.880967,212.962963 L382.880967,208.688625 L382.877379,208.383016 C382.717484,201.578653 377.232201,196.091889 370.428424,195.929621 L370.118268,195.925926 L55.3050285,195.925926 C25.0663459,195.925926 0.495796415,171.657763 0.00740929372,141.535467 L3.137655e-15,140.620897 L-5.22655247e-15,72.3219604 C-5.22655247e-15,32.7790677 31.7352896,0.648349159 71.1259845,0.0096890764 L72.3219604,-8.52651283e-14 L123.372756,-1.13686838e-13 Z M548.506764,54.2288889 C555.755977,54.2288889 562.316004,56.0177778 568.186846,59.5955556 C574.057687,63.1733333 578.70331,68.2588889 582.123713,74.8522222 C585.544116,81.4455556 587.254318,89.0866667 587.254318,97.7755556 C587.254318,106.464444 585.544116,114.156667 582.123713,120.852222 C578.70331,127.547778 574.057687,132.735556 568.186846,136.415556 C562.316004,140.095556 555.755977,141.935556 548.506764,141.935556 C542.278567,141.935556 536.790607,140.657778 532.042883,138.102222 C527.295159,135.546667 523.440824,132.326667 520.479877,128.442222 L520.479877,128.442222 L520.479877,181.035556 L499.038543,181.035556 L499.038543,55.6088889 L520.479877,55.6088889 L520.479877,67.8755556 L520.802608,67.4301857 C523.530729,63.7423981 527.226436,60.6452991 531.88973,58.1388889 C536.739556,55.5322222 542.278567,54.2288889 548.506764,54.2288889 Z M119.118523,21.2962963 L76.5761933,21.2962963 L75.6616235,21.3037056 C45.8405504,21.7872088 21.7571135,45.8736394 21.2784268,75.6958832 L21.2711648,76.6013248 L21.2711648,140.595766 L21.2757244,141.158578 C21.5732648,159.510008 36.3956837,174.330584 54.7478337,174.625161 L55.3050285,174.62963 L140.389688,174.62963 C158.998108,174.62963 174.118446,159.695376 174.418992,141.158578 L174.423551,140.595766 L174.423551,76.6013248 L174.416142,75.686755 C173.927755,45.564459 149.357206,21.2962963 119.118523,21.2962963 Z M366.561729,54.2288889 C372.892028,54.2288889 378.431039,55.5066667 383.178763,58.0622222 C387.926487,60.6177778 391.729771,63.8377778 394.588616,67.7222222 L394.588616,67.7222222 L394.588616,55.6088889 L416.183102,55.6088889 L416.183102,140.555556 L394.588616,140.555556 L394.588616,128.135556 L394.265886,128.592493 C391.537764,132.374791 387.842057,135.519145 383.178763,138.025556 C378.328937,140.632222 372.738875,141.935556 366.408577,141.935556 C359.261465,141.935556 352.752489,140.095556 346.881647,136.415556 C341.010806,132.735556 336.365183,127.547778 332.94478,120.852222 C329.524377,114.156667 327.814175,106.464444 327.814175,97.7755556 C327.814175,89.1888889 329.524377,81.5733333 332.94478,74.9288889 C336.365183,68.2844444 341.010806,63.1733333 346.881647,59.5955556 C352.752489,56.0177778 359.312516,54.2288889 366.561729,54.2288889 Z M639.938739,54.2288889 C648.004765,54.2288889 655.228452,55.9666667 661.609802,59.4422222 C667.991151,62.9177778 672.943078,67.85 676.465583,74.2388889 C679.988088,80.6277778 681.749341,87.9622222 681.749341,96.2422222 C681.749341,99.3088889 681.545137,102.068889 681.136731,104.522222 L681.136731,104.522222 L619.110014,104.522222 L619.157773,105.044682 C619.744378,110.92901 621.872592,115.559302 625.542415,118.935556 C629.320174,122.411111 633.965796,124.148889 639.479282,124.148889 C647.443206,124.148889 653.109844,120.724444 656.479197,113.875556 L656.479197,113.875556 L679.605207,113.875556 L679.430602,114.443735 C676.935104,122.365155 672.296633,128.896873 665.515188,134.038889 C658.572279,139.303333 650.046797,141.935556 639.938739,141.935556 C631.770612,141.935556 624.444823,140.121111 617.961372,136.492222 C611.477921,132.863333 606.423892,127.726667 602.799285,121.082222 C599.174679,114.437778 597.362376,106.771111 597.362376,98.0822222 C597.362376,89.2911111 599.149153,81.5733333 602.722709,74.9288889 C606.296265,68.2844444 611.299243,63.1733333 617.731643,59.5955556 C624.164043,56.0177778 631.566409,54.2288889 639.938739,54.2288889 Z M895.090615,54.2288889 C903.156641,54.2288889 910.380328,55.9666667 916.761678,59.4422222 C923.143027,62.9177778 928.094954,67.85 931.617459,74.2388889 C935.139964,80.6277778 936.901217,87.9622222 936.901217,96.2422222 C936.901217,99.3088889 936.697014,102.068889 936.288607,104.522222 L936.288607,104.522222 L874.261891,104.522222 L874.309649,105.044682 C874.896254,110.92901 877.024468,115.559302 880.694291,118.935556 C884.47205,122.411111 889.117672,124.148889 894.631158,124.148889 C902.595082,124.148889 908.26172,120.724444 911.631073,113.875556 L911.631073,113.875556 L934.757083,113.875556 L934.582478,114.443735 C932.08698,122.365155 927.448509,128.896873 920.667064,134.038889 C913.724156,139.303333 905.198673,141.935556 895.090615,141.935556 C886.922488,141.935556 879.596699,140.121111 873.113248,136.492222 C866.629797,132.863333 861.575768,127.726667 857.951161,121.082222 C854.326555,114.437778 852.514252,106.771111 852.514252,98.0822222 C852.514252,89.2911111 854.30103,81.5733333 857.874585,74.9288889 C861.448141,68.2844444 866.451119,63.1733333 872.883519,59.5955556 C879.315919,56.0177778 886.718285,54.2288889 895.090615,54.2288889 Z M253.228963,33.5288889 L253.228963,81.5222222 L292.129669,33.5288889 L318.012422,33.5288889 L273.904535,86.5822222 L319.237641,140.555556 L292.129669,140.555556 L253.228963,92.8688889 L253.228963,140.555556 L231.787629,140.555556 L231.787629,33.5288889 L253.228963,33.5288889 Z M484.642219,54.3822222 L484.642219,76.9222222 L478.975581,76.9222222 L478.432835,76.9256943 C471.963517,77.0090252 467.064878,78.5923123 463.736918,81.6755556 C460.316515,84.8444444 458.606313,90.3644444 458.606313,98.2355556 L458.606313,98.2355556 L458.606313,140.555556 L437.164979,140.555556 L437.164979,55.6088889 L458.606313,55.6088889 L458.606313,68.7955556 L458.916084,68.2997988 C461.63081,64.0378753 465.126634,60.6764609 469.403557,58.2155556 C473.844976,55.66 478.92453,54.3822222 484.642219,54.3822222 L484.642219,54.3822222 Z M744.388667,54.3822222 C754.496724,54.3822222 762.664852,57.5766667 768.893049,63.9655556 C775.121246,70.3544444 778.235344,79.2733333 778.235344,90.7222222 L778.235344,90.7222222 L778.235344,140.555556 L756.79401,140.555556 L756.79401,93.6355556 L756.790318,93.0919446 C756.701716,86.6096072 755.01827,81.603033 751.739981,78.0722222 C748.370629,74.4433333 743.776057,72.6288889 737.956266,72.6288889 C732.034374,72.6288889 727.363226,74.4433333 723.942823,78.0722222 C720.52242,81.7011111 718.812218,86.8888889 718.812218,93.6355556 L718.812218,93.6355556 L718.812218,140.555556 L697.370884,140.555556 L697.370884,55.6088889 L718.812218,55.6088889 L718.812218,66.1888889 L719.173695,65.733015 C721.976614,62.2696161 725.506254,59.5337963 729.762614,57.5255556 C734.204033,55.43 739.079384,54.3822222 744.388667,54.3822222 Z M823.568451,34.6022222 L823.568451,55.6088889 L842.559347,55.6088889 L842.559347,73.2422222 L823.568451,73.2422222 L823.568451,114.335556 L823.572359,114.704396 C823.629683,117.37628 824.317566,119.323333 825.636008,120.545556 C827.014379,121.823333 829.337191,122.462222 832.604441,122.462222 L832.604441,122.462222 L842.559347,122.462222 L842.559347,140.555556 L829.081937,140.555556 L828.542488,140.552918 C810.830139,140.378854 801.973964,131.588622 801.973964,114.182222 L801.973964,114.182222 L801.973964,73.2422222 L791.865907,73.2422222 L791.865907,55.6088889 L801.973964,55.6088889 L801.973964,34.6022222 L823.568451,34.6022222 Z M1000,54.3822222 L1000,76.9222222 L994.333362,76.9222222 L993.790616,76.9256943 C987.321298,77.0090252 982.422659,78.5923123 979.094699,81.6755556 C975.674296,84.8444444 973.964094,90.3644444 973.964094,98.2355556 L973.964094,98.2355556 L973.964094,140.555556 L952.52276,140.555556 L952.52276,55.6088889 L973.964094,55.6088889 L973.964094,68.7955556 L974.273865,68.2997988 C976.988591,64.0378753 980.484415,60.6764609 984.761338,58.2155556 C989.202757,55.66 994.282311,54.3822222 1000,54.3822222 L1000,54.3822222 Z M102.137164,63.8888889 C114.818083,63.8888889 125.576242,73.1982057 127.397833,85.7476085 L131.733411,115.616494 C132.872502,123.463978 127.434275,130.749036 119.586791,131.888127 C118.903762,131.987271 118.214472,132.037037 117.524285,132.037037 L78.1685586,132.037037 C70.2388341,132.037037 63.8105224,125.608725 63.8105224,117.679001 C63.8105224,116.988813 63.860288,116.299524 63.9594322,115.616494 L68.2950099,85.7476085 C70.1166015,73.1982057 80.87476,63.8888889 93.555679,63.8888889 L102.137164,63.8888889 Z M372.075215,73.0888889 C368.093253,73.0888889 364.417596,74.06 361.048243,76.0022222 C357.67889,77.9444444 354.947673,80.7811111 352.85459,84.5122222 C350.761508,88.2433333 349.714966,92.6644444 349.714966,97.7755556 C349.714966,102.886667 350.761508,107.358889 352.85459,111.192222 C354.947673,115.025556 357.704416,117.964444 361.124819,120.008889 C364.545222,122.053333 368.195354,123.075556 372.075215,123.075556 C376.057177,123.075556 379.783885,122.078889 383.255339,120.085556 C386.726793,118.092222 389.483536,115.23 391.525568,111.498889 C393.5676,107.767778 394.588616,103.295556 394.588616,98.0822222 C394.588616,92.8688889 393.5676,88.3966667 391.525568,84.6655556 C389.483536,80.9344444 386.726793,78.0722222 383.255339,76.0788889 C379.783885,74.0855556 376.057177,73.0888889 372.075215,73.0888889 Z M542.840126,73.0888889 C538.960265,73.0888889 535.310134,74.0855556 531.88973,76.0788889 C528.469327,78.0722222 525.712584,80.96 523.619501,84.7422222 C521.526419,88.5244444 520.479877,92.9711111 520.479877,98.0822222 C520.479877,103.193333 521.526419,107.64 523.619501,111.422222 C525.712584,115.204444 528.469327,118.092222 531.88973,120.085556 C535.310134,122.078889 538.960265,123.075556 542.840126,123.075556 C546.822088,123.075556 550.523271,122.053333 553.943674,120.008889 C557.364077,117.964444 560.12082,115.051111 562.213903,111.268889 C564.306985,107.486667 565.353527,102.988889 565.353527,97.7755556 C565.353527,92.6644444 564.306985,88.2433333 562.213903,84.5122222 C560.12082,80.7811111 557.364077,77.9444444 553.943674,76.0022222 C550.523271,74.06 546.822088,73.0888889 542.840126,73.0888889 Z M639.326129,71.8622222 C634.016847,71.8622222 629.549902,73.4722222 625.925296,76.6922222 C622.300689,79.9122222 620.07998,84.3844444 619.263167,90.1088889 L619.263167,90.1088889 L659.542245,90.1088889 C659.440143,84.5888889 657.449162,80.1677778 653.569301,76.8455556 C649.689441,73.5233333 644.941717,71.8622222 639.326129,71.8622222 Z M894.478006,71.8622222 C889.168723,71.8622222 884.701778,73.4722222 881.077172,76.6922222 C877.452565,79.9122222 875.231856,84.3844444 874.415043,90.1088889 L874.415043,90.1088889 L914.694121,90.1088889 C914.592019,84.5888889 912.601038,80.1677778 908.721178,76.8455556 C904.841317,73.5233333 900.093593,71.8622222 894.478006,71.8622222 Z" id="1000_full_logo" fill="#5C62B0"></path>
    </g>
</svg>